<svg height="875" xmlns:ev="http://www.w3.org/2001/xml-events" xmlns="http://www.w3.org/2000/svg" xmlns:xlink="http://www.w3.org/1999/xlink" viewBox="0 0 1822 875" width="1822"><defs/><g id="page1" transform="translate(5.5,5.5)"><rect height="865" fill="#ffffff" y="0" x="0" width="1812"/><path fill="#ffffff" d="M.0,.0L1812.0,.0L1812.0,865.0L.0,865.0L.0,.0z" fill-rule="nonzero" id="shape1"/><g id="shape2" transform="translate(284.000000,40.000000)"><path fill="#1a255e" stroke="#1a255e" d="M100.0,60.0L100.0,.0L.0,.0L.0,60.0L100.0,60.0z" fill-rule="nonzero" stroke-width="4"/><text xml:space="preserve" style="fill:#ffffff;font-family:微软雅黑;font-size:10.00pt"><tspan y="35.5" x="24.0">初步组装</tspan></text></g><g id="shape3" transform="translate(334.000000,100.000000)"><path fill="none" stroke="#191919" d="M.0,.0L.0,108.0" stroke-width="4"/><path fill="#191919" stroke="#191919" stroke-linecap="round" d="M6.0,108.0L.0,120.0L-6.0,108.0L6.0,108.0" stroke-width="1"/></g><g id="shape4" transform="translate(334.000000,100.000000)"><path fill="none" stroke="#191919" d="M.0,.0L.0,62.0L240.0,62.0L240.0,108.0" stroke-width="4"/><path fill="#191919" stroke="#191919" stroke-linecap="round" d="M246.0,108.0L240.0,120.0L234.0,108.0L246.0,108.0" stroke-width="1"/></g><g id="shape5" transform="translate(334.000000,100.000000)"><path fill="none" stroke="#191919" d="M.0,.0L.0,62.0L-240.0,62.0L-240.0,108.0" stroke-width="4"/><path fill="#191919" stroke="#191919" stroke-linecap="round" d="M-234.0,108.0L-240.0,120.0L-246.0,108.0L-234.0,108.0" stroke-width="1"/></g><g id="shape6" transform="translate(44.000000,220.000000)"><path fill="#1a255e" stroke="#1a255e" d="M100.0,60.0L100.0,.0L.0,.0L.0,60.0L100.0,60.0z" fill-rule="nonzero" stroke-width="4"/><text xml:space="preserve" style="fill:#ffffff;font-family:微软雅黑;font-size:10.00pt"><tspan y="26.0" x="27.0">Hifiasm</tspan><tspan y="45.0" x="17.5">（ccs+hic)</tspan></text></g><g id="shape7" transform="translate(284.000000,220.000000)"><path fill="#1a255e" stroke="#1a255e" d="M100.0,60.0L100.0,.0L.0,.0L.0,60.0L100.0,60.0z" fill-rule="nonzero" stroke-width="4"/><text xml:space="preserve" style="fill:#ffffff;font-family:微软雅黑;font-size:10.00pt"><tspan y="26.0" x="16.0">Nextdenvo</tspan><tspan y="45.0" x="4.0">(ont ultra long)</tspan></text></g><g id="shape8" transform="translate(524.000000,220.000000)"><path fill="#1a255e" stroke="#1a255e" d="M100.0,60.0L100.0,.0L.0,.0L.0,60.0L100.0,60.0z" fill-rule="nonzero" stroke-width="4"/><text xml:space="preserve" style="fill:#ffffff;font-family:微软雅黑;font-size:10.00pt"><tspan y="26.0" x="27.0">Hifiasm</tspan><tspan y="45.0" x="11.5">(ccs+ul+hic)</tspan></text></g><g id="shape9" transform="translate(284.000000,334.000000)"><path fill="#1a255e" stroke="#1a255e" d="M100.0,60.0L100.0,.0L.0,.0L.0,60.0L100.0,60.0z" fill-rule="nonzero" stroke-width="4"/><text xml:space="preserve" style="fill:#ffffff;font-family:微软雅黑;font-size:10.00pt"><tspan y="26.0" x="27.0">QV评估</tspan><tspan y="45.0" x="14.0">BUSCO评估</tspan></text></g><g id="shape10" transform="translate(334.000000,280.000000)"><path fill="none" stroke="#191919" d="M.0,.0L.0,42.0" stroke-width="4"/><path fill="#191919" stroke="#191919" stroke-linecap="round" d="M6.0,42.0L.0,54.0L-6.0,42.0L6.0,42.0" stroke-width="1"/></g><g id="shape11" transform="translate(247.000000,585.500000)"><path fill="#1a255e" stroke="#1a255e" d="M174.0,66.5L174.0,.0L.0,.0L.0,66.5L174.0,66.5z" fill-rule="nonzero" stroke-width="4"/><text xml:space="preserve" style="fill:#ffffff;font-family:微软雅黑;font-size:10.00pt"><tspan y="20.0" x="22.0">常规纠错Racon+Pilon</tspan><tspan y="39.0" x="8.0">（3代用HIFI数据纠错2轮、</tspan><tspan y="58.0" x="23.0">2代NGS纠错1~2轮）</tspan></text></g><g id="shape12" transform="translate(524.000000,334.000000)"><path fill="#1a255e" stroke="#1a255e" d="M100.0,60.0L100.0,.0L.0,.0L.0,60.0L100.0,60.0z" fill-rule="nonzero" stroke-width="4"/><text xml:space="preserve" style="fill:#ffffff;font-family:微软雅黑;font-size:10.00pt"><tspan y="26.0" x="27.0">QV评估</tspan><tspan y="45.0" x="14.0">BUSCO评估</tspan></text></g><g id="shape13" transform="translate(574.000000,280.000000)"><path fill="none" stroke="#191919" d="M.0,.0L.0,42.0" stroke-width="4"/><path fill="#191919" stroke="#191919" stroke-linecap="round" d="M6.0,42.0L.0,54.0L-6.0,42.0L6.0,42.0" stroke-width="1"/></g><g id="shape14" transform="translate(44.000000,334.000000)"><path fill="#1a255e" stroke="#1a255e" d="M100.0,60.0L100.0,.0L.0,.0L.0,60.0L100.0,60.0z" fill-rule="nonzero" stroke-width="4"/><text xml:space="preserve" style="fill:#ffffff;font-family:微软雅黑;font-size:10.00pt"><tspan y="26.0" x="27.0">QV评估</tspan><tspan y="45.0" x="14.0">BUSCO评估</tspan></text></g><g id="shape15" transform="translate(94.000000,280.000000)"><path fill="none" stroke="#191919" d="M.0,.0L.0,42.0" stroke-width="4"/><path fill="#191919" stroke="#191919" stroke-linecap="round" d="M6.0,42.0L.0,54.0L-6.0,42.0L6.0,42.0" stroke-width="1"/></g><g id="shape16" transform="translate(94.000000,394.000000)"><path fill="none" stroke="#191919" d="M.0,.0L.0,54.0" stroke-width="4"/><path fill="#191919" stroke="#191919" stroke-linecap="round" d="M6.0,54.0L.0,66.0L-6.0,54.0L6.0,54.0" stroke-width="1"/></g><g id="shape17" transform="translate(40.000000,460.000000)"><path fill="#1a255e" stroke="#1a255e" d="M108.0,73.0L108.0,.0L.0,.0L.0,73.0L108.0,73.0z" fill-rule="nonzero" stroke-width="4"/><text xml:space="preserve" style="fill:#ffffff;font-family:微软雅黑;font-size:10.00pt"><tspan y="32.5" x="5.5">尽量不去冗余/只</tspan><tspan y="51.5" x="5.0">去低深度和短ctg</tspan></text></g><g id="shape18" transform="translate(284.000000,439.218750)"><path fill="#7c3a37" stroke="#7c3a37" d="M50.0,101.6L100.0,50.8L50.0,.0L.0,50.8L50.0,101.6z" fill-rule="nonzero" stroke-width="4"/><text xml:space="preserve" style="fill:#ffffff;font-family:微软雅黑;font-size:10.00pt"><tspan y="37.3" x="24.0">是否被选</tspan><tspan y="56.3" x="26.0">为T2T骨</tspan><tspan y="75.3" x="43.5">架</tspan></text></g><g id="shape19" transform="translate(334.000000,394.000000)"><path fill="none" stroke="#191919" d="M.0,.0L.0,33.0" stroke-width="4"/><path fill="#191919" stroke="#191919" stroke-linecap="round" d="M6.0,33.0L.0,45.0L-6.0,33.0L6.0,33.0" stroke-width="1"/></g><g id="shape20" transform="translate(334.000000,540.781250)"><path fill="none" stroke="#191919" d="M.0,.0L.0,33.0" stroke-width="4"/><path fill="#191919" stroke="#191919" stroke-linecap="round" d="M6.0,33.0L.0,45.0L-6.0,33.0L6.0,33.0" stroke-width="1"/></g><g id="shape21" transform="translate(248.000000,716.500000)"><path fill="#1a255e" stroke="#1a255e" d="M174.0,73.0L174.0,.0L.0,.0L.0,73.0L174.0,73.0z" fill-rule="nonzero" stroke-width="4"/><text xml:space="preserve" style="fill:#ffffff;font-family:微软雅黑;font-size:10.00pt"><tspan y="32.5" x="21.5">QV评估、BUSCO评估</tspan><tspan y="51.5" x="9.5">BUSCO变化不能超过0.2%</tspan></text></g><g id="shape22" transform="translate(334.000000,652.000000)"><path fill="none" stroke="#191919" d="M.0,.0L.0,51.0" stroke-width="4"/><path fill="#191919" stroke="#191919" stroke-linecap="round" d="M6.0,51.0L.0,63.0L-6.0,51.0L6.0,51.0" stroke-width="1"/></g><g id="shape23" transform="translate(296.000000,538.500000)"><text xml:space="preserve" style="fill:#191919;font-family:微软雅黑;font-size:10.00pt;font-weight:bold"><tspan y="23.0" x="53.5">否</tspan></text></g><g id="shape24" transform="translate(368.000000,460.000000)"><text xml:space="preserve" style="fill:#191919;font-family:微软雅黑;font-size:10.00pt;font-weight:bold"><tspan y="23.0" x="53.5">是</tspan></text></g><g id="shape25" transform="translate(439.500000,579.000000)"><path fill="#7c6124" stroke="#7c6124" d="M.0,36.5C.0,16.3,16.3,.0,36.5,.0C56.7,.0,73.0,16.3,73.0,36.5C73.0,56.7,56.7,73.0,36.5,73.0C16.3,73.0,.0,56.7,.0,36.5z" fill-rule="nonzero" stroke-width="4"/><text xml:space="preserve" style="fill:#ffffff;font-family:微软雅黑;font-size:10.00pt"><tspan y="32.5" x="23.5">不做</tspan><tspan y="51.5" x="10.5">常规纠错</tspan></text></g><g id="shape26" transform="translate(384.000000,490.000000)"><path fill="none" stroke="#191919" d="M.0,.0L91.0,.0L91.0,77.0" stroke-width="4"/><path fill="#191919" stroke="#191919" stroke-linecap="round" d="M97.0,77.0L91.0,89.0L85.0,77.0L97.0,77.0" stroke-width="1"/></g><g id="shape27" transform="translate(476.000000,652.000000)"><path fill="none" stroke="#191919" d="M.0,.0L.0,33.0L-130.0,33.0" stroke-width="4"/><path fill="#191919" stroke="#191919" stroke-linecap="round" d="M-130.0,39.0L-142.0,33.0L-130.0,27.0L-130.0,39.0" stroke-width="1"/></g><g id="shape28" transform="translate(335.000000,789.500000)"><path fill="none" stroke="#191919" d="M.0,.0L.0,28.0L333.0,28.0L333.0,-741.0L645.0,-741.0L645.0,-725.5" stroke-width="4"/><path fill="#191919" stroke="#191919" stroke-linecap="round" d="M651.0,-725.5L645.0,-713.5L639.0,-725.5L651.0,-725.5" stroke-width="1"/></g><g id="shape29" transform="translate(884.000000,76.000000)"><path fill="#1a255e" stroke="#1a255e" d="M192.0,96.0L192.0,.0L.0,.0L.0,96.0L192.0,96.0z" fill-rule="nonzero" stroke-width="4"/><text xml:space="preserve" style="fill:#ffffff;font-family:微软雅黑;font-size:10.00pt"><tspan y="34.5" x="4.0">根据N50、BUSCO、QV与预估</tspan><tspan y="53.5" x="8.5">gap数，进行综合评价选择T2T</tspan><tspan y="72.5" x="63.5">骨架基因组</tspan></text></g><g id="shape30" transform="translate(910.000000,243.500000)"><path fill="#1a255e" stroke="#1a255e" d="M143.0,82.5L143.0,.0L.0,.0L.0,82.5L143.0,82.5z" fill-rule="nonzero" stroke-width="4"/><text xml:space="preserve" style="fill:#ffffff;font-family:微软雅黑;font-size:10.00pt"><tspan y="37.3" x="10.5">HIC互作生成.hic文件</tspan><tspan y="56.3" x="35.5">和.assembly</tspan></text></g><g id="shape31" transform="translate(980.000000,206.203000)"><path fill="none" stroke="#191919" d="M.0,.0L-188.5,.0L-188.5,25.3" stroke-width="4"/><path fill="#191919" stroke="#191919" stroke-linecap="round" d="M-182.5,25.3L-188.5,37.3L-194.5,25.3L-182.5,25.3" stroke-width="1"/></g><g id="shape32" transform="translate(720.000000,243.500000)"><path fill="#1a255e" stroke="#1a255e" d="M143.0,82.5L143.0,.0L.0,.0L.0,82.5L143.0,82.5z" fill-rule="nonzero" stroke-width="4"/><text xml:space="preserve" style="fill:#ffffff;font-family:微软雅黑;font-size:10.00pt"><tspan y="27.8" x="4.5">Ragtag同源挂载参考基</tspan><tspan y="46.8" x="13.0">因组进行排序，得到</tspan><tspan y="65.8" x="35.5">ctg位置信息</tspan></text></g><g id="shape33" transform="translate(791.500000,326.000000)"><path fill="none" stroke="#191919" d="M.0,.0L.0,55.0" stroke-width="4"/><path fill="#191919" stroke="#191919" stroke-linecap="round" d="M6.0,55.0L.0,67.0L-6.0,55.0L6.0,55.0" stroke-width="1"/></g><g id="shape34" transform="translate(717.000000,392.000000)"><path fill="#1a255e" stroke="#1a255e" d="M146.0,92.0L146.0,.0L.0,.0L.0,92.0L146.0,92.0z" fill-rule="nonzero" stroke-width="4"/><text xml:space="preserve" style="fill:#ffffff;font-family:微软雅黑;font-size:10.00pt"><tspan y="42.0" x="14.5">根据共线性结果生成</tspan><tspan y="61.0" x="9.0">.ragtag.assembly文件</tspan></text></g><g id="shape35" transform="translate(981.500000,326.000000)"><path fill="none" stroke="#191919" d="M.0,.0L.0,53.0" stroke-width="4"/><path fill="#191919" stroke="#191919" stroke-linecap="round" d="M6.0,53.0L.0,65.0L-6.0,53.0L6.0,53.0" stroke-width="1"/></g><g id="shape36" transform="translate(907.000000,390.900000)"><path fill="#1a255e" stroke="#1a255e" d="M146.0,92.6L146.0,.0L.0,.0L.0,92.6L146.0,92.6z" fill-rule="nonzero" stroke-width="4"/><text xml:space="preserve" style="fill:#ffffff;font-family:微软雅黑;font-size:10.00pt"><tspan y="13.8" x="33.5">Juicebox调图</tspan><tspan y="32.8" x="8.0">主要关注染色体末端空</tspan><tspan y="51.8" x="4.5">白信号的rRNA序列和中</tspan><tspan y="70.8" x="14.5">间的着丝粒区域以及</tspan><tspan y="89.8" x="17.5">染色体末端的碎ctg</tspan></text></g><g id="shape37" transform="translate(863.000000,438.000000)"><path fill="none" stroke="#191919" d="M.0,.0L32.0,.0" stroke-width="4"/><path fill="#191919" stroke="#191919" stroke-linecap="round" d="M32.0,-6.0L44.0,.0L32.0,6.0L32.0,-6.0" stroke-width="1"/></g><g id="shape38" transform="translate(1053.000000,437.200000)"><path fill="none" stroke="#191919" d="M.0,.0L23.0,.0" stroke-width="4"/><path fill="#191919" stroke="#191919" stroke-linecap="round" d="M23.0,-6.0L35.0,.0L23.0,6.0L23.0,-6.0" stroke-width="1"/></g><g id="shape39" transform="translate(1088.000000,390.900000)"><path fill="#1a255e" stroke="#1a255e" d="M168.0,92.6L168.0,.0L.0,.0L.0,92.6L168.0,92.6z" fill-rule="nonzero" stroke-width="4"/><text xml:space="preserve" style="fill:#ffffff;font-family:微软雅黑;font-size:10.00pt"><tspan y="33.0" x="14.5">确认T2T骨架基本无问题</tspan><tspan y="52.0" x="7.5">生成第一次HIC后的基因组</tspan><tspan y="71.0" x="19.0">记录着丝粒信号的位置</tspan></text></g><g id="shape40" transform="translate(907.000000,581.200000)"><path fill="#1a255e" stroke="#1a255e" d="M146.0,93.6L146.0,.0L.0,.0L.0,93.6L146.0,93.6z" fill-rule="nonzero" stroke-width="4"/><text xml:space="preserve" style="fill:#ffffff;font-family:微软雅黑;font-size:10.00pt"><tspan y="24.0" x="4.5">将所有的初步组装的ctg</tspan><tspan y="43.0" x="4.0">版本（包含每个primary</tspan><tspan y="62.0" x="5.0">的hap1和hap2）与T2T</tspan><tspan y="81.0" x="21.0">骨架进行同源挂载</tspan></text></g><path fill="none" stroke="#191919" d="M.0,.0L.0,.0" id="shape41" transform="translate(1245.000000,628.000000)" stroke-width="4"/><g id="shape42" transform="translate(1172.000000,483.500000)"><path fill="none" stroke="#191919" d="M.0,.0L.0,54.0L-192.0,54.0L-192.0,85.7" stroke-width="4"/><path fill="#191919" stroke="#191919" stroke-linecap="round" d="M-186.0,85.7L-192.0,97.7L-198.0,85.7L-186.0,85.7" stroke-width="1"/></g><g id="shape43" transform="translate(717.000000,581.200000)"><path fill="#1a255e" stroke="#1a255e" d="M146.0,93.6L146.0,.0L.0,.0L.0,93.6L146.0,93.6z" fill-rule="nonzero" stroke-width="4"/><text xml:space="preserve" style="fill:#ffffff;font-family:微软雅黑;font-size:10.00pt"><tspan y="24.0" x="9.5">检查Syri图确认倒位等</tspan><tspan y="43.0" x="34.0">变异的真实性</tspan><tspan y="62.0" x="6.0">检查mummer图确认染</tspan><tspan y="81.0" x="27.5">色体间有无异位</tspan></text></g><g id="shape44" transform="translate(1099.000000,581.700000)"><path fill="#1a255e" stroke="#1a255e" d="M146.0,92.6L146.0,.0L.0,.0L.0,92.6L146.0,92.6z" fill-rule="nonzero" stroke-width="4"/><text xml:space="preserve" style="fill:#ffffff;font-family:微软雅黑;font-size:10.00pt"><tspan y="23.3" x="4.5">检查染色体末端rRNA存</tspan><tspan y="42.3" x="8.0">在的真实性以及完整度</tspan><tspan y="61.3" x="8.0">检查染色体末端有无端</tspan><tspan y="80.3" x="8.0">粒序列被垃圾序列掩盖</tspan></text></g><g id="shape45" transform="translate(980.000000,674.800000)"><path fill="none" stroke="#191919" d="M.0,.0L.0,40.0" stroke-width="4"/><path fill="#191919" stroke="#191919" stroke-linecap="round" d="M6.0,40.0L.0,52.0L-6.0,40.0L6.0,40.0" stroke-width="1"/></g><g id="shape46" transform="translate(907.000000,726.400000)"><path fill="#1a255e" stroke="#1a255e" d="M146.0,93.6L146.0,.0L.0,.0L.0,93.6L146.0,93.6z" fill-rule="nonzero" stroke-width="4"/><text xml:space="preserve" style="fill:#ffffff;font-family:微软雅黑;font-size:10.00pt"><tspan y="33.5" x="9.5">确认HIC无人工因素影</tspan><tspan y="52.5" x="8.0">响导致端粒、着丝粒、</tspan><tspan y="71.5" x="29.5">rDNA序列丢失</tspan></text></g><g id="shape47" transform="translate(824.000000,172.000000)"><text xml:space="preserve" style="fill:#191919;font-family:微软雅黑;font-size:10.00pt;font-weight:bold"><tspan y="23.0" x="37.5">ragtag</tspan></text></g><g id="shape48" transform="translate(989.000000,498.000000)"><text xml:space="preserve" style="fill:#191919;font-family:微软雅黑;font-size:10.00pt;font-weight:bold"><tspan y="32.5" x="9.0">多种ctg基因组同源挂载比较</tspan></text></g><g id="shape49" transform="translate(1099.000000,628.000000)"><path fill="none" stroke="#191919" d="M.0,.0L-34.0,.0" stroke-width="4"/><path fill="#191919" stroke="#191919" stroke-linecap="round" d="M-34.0,6.0L-46.0,.0L-34.0,-6.0L-34.0,6.0" stroke-width="1"/></g><g id="shape50" transform="translate(863.000000,628.000000)"><path fill="none" stroke="#191919" d="M.0,.0L32.0,.0" stroke-width="4"/><path fill="#191919" stroke="#191919" stroke-linecap="round" d="M32.0,-6.0L44.0,.0L32.0,6.0L32.0,-6.0" stroke-width="1"/></g><g id="shape51" transform="translate(1482.000000,76.000000)"><path fill="#1a255e" stroke="#1a255e" d="M146.0,93.6L146.0,.0L.0,.0L.0,93.6L146.0,93.6z" fill-rule="nonzero" stroke-width="4"/><text xml:space="preserve" style="fill:#ffffff;font-family:微软雅黑;font-size:10.00pt"><tspan y="43.0" x="18.5">Gap填补/端粒延伸</tspan><tspan y="62.0" x="21.0">没有先后顺序之分</tspan></text></g><g id="shape52" transform="translate(1053.000000,773.200000)"><path fill="none" stroke="#191919" d="M.0,.0L239.0,.0L239.0,-650.4L417.0,-650.4" stroke-width="4"/><path fill="#191919" stroke="#191919" stroke-linecap="round" d="M417.0,-656.4L429.0,-650.4L417.0,-644.4L417.0,-656.4" stroke-width="1"/></g><g id="shape53" transform="translate(1505.000000,208.125500)"><path fill="#7c3a37" stroke="#7c3a37" d="M50.0,71.9L100.0,35.9L50.0,.0L.0,35.9L50.0,71.9z" fill-rule="nonzero" stroke-width="4"/><text xml:space="preserve" style="fill:#ffffff;font-family:微软雅黑;font-size:10.00pt"><tspan y="31.9" x="24.0">存疑序列</tspan><tspan y="50.9" x="30.5">是否多</tspan></text></g><g id="shape54" transform="translate(1555.000000,169.600000)"><path fill="none" stroke="#191919" d="M.0,.0L.0,27.0" stroke-width="4"/><path fill="#191919" stroke="#191919" stroke-linecap="round" d="M6.0,27.0L.0,39.0L-6.0,27.0L6.0,27.0" stroke-width="1"/></g><g id="shape55" transform="translate(1556.000000,281.500000)"><text xml:space="preserve" style="fill:#191919;font-family:微软雅黑;font-size:10.00pt;font-weight:bold"><tspan y="23.0" x="11.0">是</tspan></text></g><g id="shape56" transform="translate(1482.000000,330.000000)"><path fill="#1a255e" stroke="#1a255e" d="M147.0,88.0L147.0,.0L.0,.0L.0,88.0L147.0,88.0z" fill-rule="nonzero" stroke-width="4"/><text xml:space="preserve" style="fill:#ffffff;font-family:微软雅黑;font-size:10.00pt"><tspan y="30.5" x="48.0">Gap填补</tspan><tspan y="49.5" x="21.5">确认区域的真实性</tspan><tspan y="68.5" x="10.0">软件最大延伸可填10k</tspan></text></g><g id="shape57" transform="translate(1505.000000,244.063000)"><path fill="none" stroke="#191919" d="M.0,.0L-125.0,.0L-125.0,83.0" stroke-width="4"/><path fill="#191919" stroke="#191919" stroke-linecap="round" d="M-119.0,83.0L-125.0,95.0L-131.0,83.0L-119.0,83.0" stroke-width="1"/></g><g id="shape58" transform="translate(1388.000000,208.125000)"><text xml:space="preserve" style="fill:#191919;font-family:微软雅黑;font-size:10.00pt;font-weight:bold"><tspan y="23.0" x="53.5">否</tspan></text></g><g id="shape59" transform="translate(1330.500000,339.000000)"><path fill="#1a255e" stroke="#1a255e" d="M100.0,73.0L100.0,.0L.0,.0L.0,73.0L100.0,73.0z" fill-rule="nonzero" stroke-width="4"/><text xml:space="preserve" style="fill:#ffffff;font-family:微软雅黑;font-size:10.00pt"><tspan y="23.0" x="24.0">端粒延伸</tspan><tspan y="42.0" x="20.0">ONT/HIFI</tspan><tspan y="61.0" x="4.5">都用于端粒延伸</tspan></text></g><g id="shape60" transform="translate(1380.500000,412.000000)"><path fill="none" stroke="#191919" d="M.0,.0L.0,26.0" stroke-width="4"/><path fill="#191919" stroke="#191919" stroke-linecap="round" d="M6.0,26.0L.0,38.0L-6.0,26.0L6.0,26.0" stroke-width="1"/></g><g id="shape61" transform="translate(1330.500000,449.700000)"><path fill="#1a255e" stroke="#1a255e" d="M100.0,106.3L100.0,.0L.0,.0L.0,106.3L100.0,106.3z" fill-rule="nonzero" stroke-width="4"/><text xml:space="preserve" style="fill:#ffffff;font-family:微软雅黑;font-size:10.00pt"><tspan y="30.1" x="16.0">选择ONT与</tspan><tspan y="49.1" x="5.0">HIFI版本中各自</tspan><tspan y="68.2" x="4.5">最好的结果，整</tspan><tspan y="87.2" x="11.0">合得到基因组</tspan></text></g><g id="shape62" transform="translate(1430.500000,389.078000)"><path fill="none" stroke="#191919" d="M.0,.0L40.0,.0" stroke-width="4"/><path fill="#191919" stroke="#191919" stroke-linecap="round" d="M40.0,-6.0L52.0,.0L40.0,6.0L40.0,-6.0" stroke-width="1"/></g><g id="shape63" transform="translate(1482.000000,374.000000)"><path fill="none" stroke="#191919" d="M.0,.0L-40.0,.0" stroke-width="4"/><path fill="#191919" stroke="#191919" stroke-linecap="round" d="M-40.0,6.0L-52.0,.0L-40.0,-6.0L-40.0,6.0" stroke-width="1"/></g><g id="shape64" transform="translate(1652.000000,339.000000)"><path fill="#1a255e" stroke="#1a255e" d="M120.0,72.0L120.0,.0L.0,.0L.0,72.0L120.0,72.0z" fill-rule="nonzero" stroke-width="4"/><text xml:space="preserve" style="fill:#ffffff;font-family:微软雅黑;font-size:10.00pt"><tspan y="22.5" x="21.5">手动填补Gap</tspan><tspan y="41.5" x="6.5">注意ONT填补后，</tspan><tspan y="60.5" x="30.5">QV的变化</tspan></text></g><g id="shape65" transform="translate(1652.000000,375.000000)"><path fill="none" stroke="#191919" d="M.0,.0L-11.0,.0" stroke-width="4"/><path fill="#191919" stroke="#191919" stroke-linecap="round" d="M-11.0,6.0L-23.0,.0L-11.0,-6.0L-11.0,6.0" stroke-width="1"/></g><g id="shape66" transform="translate(1555.500000,418.000000)"><path fill="none" stroke="#191919" d="M.0,.0L.0,19.0" stroke-width="4"/><path fill="#191919" stroke="#191919" stroke-linecap="round" d="M6.0,19.0L.0,31.0L-6.0,19.0L6.0,19.0" stroke-width="1"/></g><g id="shape67" transform="translate(1482.000000,449.000000)"><path fill="#1a255e" stroke="#1a255e" d="M147.0,107.0L147.0,.0L.0,.0L.0,107.0L147.0,107.0z" fill-rule="nonzero" stroke-width="4"/><text xml:space="preserve" style="fill:#ffffff;font-family:微软雅黑;font-size:10.00pt"><tspan y="40.0" x="18.0">QV评估、端粒鉴定</tspan><tspan y="59.0" x="11.5">每条染色体的QV变化</tspan><tspan y="78.0" x="17.5">不能比延伸前超过2</tspan></text></g><g id="shape68" transform="translate(1430.500000,502.850000)"><path fill="none" stroke="#191919" d="M.0,.0L40.0,.0" stroke-width="4"/><path fill="#191919" stroke="#191919" stroke-linecap="round" d="M40.0,-6.0L52.0,.0L40.0,6.0L40.0,-6.0" stroke-width="1"/></g><g id="shape69" transform="translate(1555.500000,556.000000)"><path fill="none" stroke="#191919" d="M.0,.0L.0,32.0" stroke-width="4"/><path fill="#191919" stroke="#191919" stroke-linecap="round" d="M6.0,32.0L.0,44.0L-6.0,32.0L6.0,32.0" stroke-width="1"/></g><g id="shape70" transform="translate(1482.000000,600.000000)"><path fill="#1a255e" stroke="#1a255e" d="M147.0,126.3L147.0,.0L.0,.0L.0,126.3L147.0,126.3z" fill-rule="nonzero" stroke-width="4"/><text xml:space="preserve" style="fill:#ffffff;font-family:微软雅黑;font-size:10.00pt"><tspan y="21.5" x="28.5">HIFI+NGS纠错</tspan><tspan y="40.5" x="10.0">(nextpolish2）、各项</tspan><tspan y="59.5" x="28.0">评估、原始数据</tspan><tspan y="78.5" x="7.0">Mapping、与已发表基</tspan><tspan y="97.5" x="10.0">因组做Syri图、出最终</tspan><tspan y="116.5" x="34.0">的Juicebox图</tspan></text></g><g id="shape71" transform="translate(1555.500000,726.300000)"><path fill="none" stroke="#191919" d="M.0,.0L.0,30.0" stroke-width="4"/><path fill="#191919" stroke="#191919" stroke-linecap="round" d="M6.0,30.0L.0,42.0L-6.0,30.0L6.0,30.0" stroke-width="1"/></g><g id="shape72" transform="translate(1482.000000,768.000000)"><path fill="#1a255e" stroke="#1a255e" d="M146.0,52.0L146.0,.0L.0,.0L.0,52.0L146.0,52.0z" fill-rule="nonzero" stroke-width="4"/><text xml:space="preserve" style="fill:#ffffff;font-family:微软雅黑;font-size:10.00pt"><tspan y="22.5" x="21.0">整理所有组装结果</tspan><tspan y="41.5" x="10.0">整体T2T组装思路回顾</tspan></text></g><g id="shape73" transform="translate(1555.000000,280.000500)"><path fill="none" stroke="#191919" d="M.0,.0L.0,39.0" stroke-width="4"/><path fill="#191919" stroke="#191919" stroke-linecap="round" d="M6.0,39.0L.0,51.0L-6.0,39.0L6.0,39.0" stroke-width="1"/></g><g id="shape74" transform="translate(1068.000000,205.700000)"><path fill="#129682" d="M208.0,148.6L208.0,.0L.0,.0L.0,148.6L208.0,148.6z" fill-rule="nonzero"/><text xml:space="preserve" style="fill:#ffffff;font-family:微软雅黑;font-size:10.00pt"><tspan y="32.5" x="4.0">先把Priamry的HIC版本基因组做出</tspan><tspan y="51.5" x="17.5">来，使用Hap1+未挂载区或者</tspan><tspan y="70.5" x="4.5">Hap2+未挂载区的方式，与比较完</tspan><tspan y="89.5" x="9.0">整的Primary基因组进行共线性，</tspan><tspan y="108.5" x="8.5">找寻分型T2T中散落在未挂载区的</tspan><tspan y="127.5" x="81.0">重要ctg</tspan></text></g><g id="shape75" transform="translate(1172.000000,354.300000)"><path fill="none" stroke="#191919" d="M.0,.0L.0,29.0" stroke-width="1"/><path fill="#191919" stroke="#191919" stroke-linecap="round" d="M3.0,29.0L.0,35.0L-3.0,29.0L3.0,29.0" stroke-width="1"/></g><g id="shape76" transform="translate(1172.000000,354.300000)"><path fill="none" stroke="#191919" d="M.0,.0L.0,24.6" stroke-width="4"/><path fill="#191919" stroke="#191919" stroke-linecap="round" d="M6.0,24.6L.0,36.6L-6.0,24.6L6.0,24.6" stroke-width="1"/></g><g id="shape77" transform="translate(717.000000,726.400000)"><path fill="#16b69e" d="M146.0,93.6L146.0,.0L.0,.0L.0,93.6L146.0,93.6z" fill-rule="nonzero"/><text xml:space="preserve" style="fill:#ffffff;font-family:微软雅黑;font-size:10.00pt"><tspan y="24.0" x="10.0">分型T2T确认分型的准</tspan><tspan y="43.0" x="8.0">确性，可能会涉及到同</tspan><tspan y="62.0" x="10.0">源替换，rDNA等序列</tspan><tspan y="81.0" x="40.5">不一定完整</tspan></text></g><g id="shape78" transform="translate(224.000000,70.000000)"><path fill="none" stroke="#191919" d="M.0,.0L48.0,.0" stroke-width="4"/><path fill="#191919" stroke="#191919" stroke-linecap="round" d="M48.0,-6.0L60.0,.0L48.0,6.0L48.0,-6.0" stroke-width="1"/></g><g id="shape79" transform="translate(863.000000,773.200000)"><path fill="none" stroke="#191919" d="M.0,.0L32.0,.0" stroke-width="4"/><path fill="#191919" stroke="#191919" stroke-linecap="round" d="M32.0,-6.0L44.0,.0L32.0,6.0L32.0,-6.0" stroke-width="1"/></g><g id="shape80" transform="translate(124.000000,40.000000)"><path fill="#1a255e" stroke="#1a255e" d="M100.0,60.0L100.0,.0L.0,.0L.0,60.0L100.0,60.0z" fill-rule="nonzero" stroke-width="4"/><text xml:space="preserve" style="fill:#ffffff;font-family:微软雅黑;font-size:10.00pt"><tspan y="26.0" x="4.5">检查二代数据有</tspan><tspan y="45.0" x="30.5">无污染</tspan></text></g><g id="shape81" transform="translate(454.000000,40.000000)"><path fill="#1a255e" stroke="#1a255e" d="M122.0,60.0L122.0,.0L.0,.0L.0,60.0L122.0,60.0z" fill-rule="nonzero" stroke-width="4"/><text xml:space="preserve" style="fill:#ffffff;font-family:微软雅黑;font-size:10.00pt"><tspan y="26.0" x="12.5">统计三代数据量/</tspan><tspan y="45.0" x="7.5">三代数据做Survey</tspan></text></g><g id="shape82" transform="translate(454.000000,70.000000)"><path fill="none" stroke="#191919" d="M.0,.0L-58.0,.0" stroke-width="4"/><path fill="#191919" stroke="#191919" stroke-linecap="round" d="M-58.0,6.0L-70.0,.0L-58.0,-6.0L-58.0,6.0" stroke-width="1"/></g><g id="shape83" transform="translate(1112.000000,172.000000)"><text xml:space="preserve" style="fill:#191919;font-family:微软雅黑;font-size:10.00pt;font-weight:bold"><tspan y="23.0" x="35.0">分型T2T</tspan></text></g><g id="shape84" transform="translate(730.000000,691.000000)"><text xml:space="preserve" style="fill:#191919;font-family:微软雅黑;font-size:10.00pt;font-weight:bold"><tspan y="23.0" x="35.0">分型T2T</tspan></text></g><g id="shape85" transform="translate(980.000000,172.000000)"><path fill="none" stroke="#191919" d="M.0,.0L.0,59.0" stroke-width="4"/><path fill="#191919" stroke="#191919" stroke-linecap="round" d="M6.0,59.0L.0,71.0L-6.0,59.0L6.0,59.0" stroke-width="1"/></g><g id="shape86" transform="translate(1307.000000,599.700000)"><path fill="#784e36" d="M147.0,126.3L147.0,.0L.0,.0L.0,126.3L147.0,126.3z" fill-rule="nonzero"/><text xml:space="preserve" style="fill:#ffffff;font-family:微软雅黑;font-size:10.00pt"><tspan y="21.5" x="15.0">流程都延伸不上的需</tspan><tspan y="40.5" x="15.0">要，检查其他组装版</tspan><tspan y="59.5" x="9.5">本，如Necat的结果，</tspan><tspan y="78.5" x="8.5">在末端共线性好的情况</tspan><tspan y="97.5" x="8.5">下，可以同源替换末端</tspan><tspan y="116.5" x="41.0">的端粒序列</tspan></text></g><g id="shape87" transform="translate(1380.000000,599.000000)"><path fill="none" stroke="#191919" d="M.0,.0L.0,-30.0" stroke-width="4"/><path fill="#191919" stroke="#191919" stroke-linecap="round" d="M-6.0,-30.0L.0,-42.0L6.0,-30.0L-6.0,-30.0" stroke-width="1"/></g><g id="shape88" transform="translate(1278.000000,560.350000)"><text xml:space="preserve" style="fill:#191919;font-family:微软雅黑;font-size:10.00pt;font-weight:bold"><tspan y="23.0" x="23.0">changetelo</tspan></text></g><g id="shape89" transform="translate(192.000000,40.000000)"><text xml:space="preserve" style="fill:#191919;font-family:微软雅黑;font-size:10.00pt;font-weight:bold"><tspan y="23.0" x="53.5">nt</tspan></text></g><g id="shape90" transform="translate(360.000000,65.000000)"><text xml:space="preserve" style="fill:#191919;font-family:微软雅黑;font-size:10.00pt;font-weight:bold"><tspan y="23.0" x="38.5">survey</tspan></text></g><g id="shape91" transform="translate(360.000000,40.000000)"><text xml:space="preserve" style="fill:#191919;font-family:微软雅黑;font-size:10.00pt;font-weight:bold"><tspan y="23.0" x="45.0">stats</tspan></text></g><g id="shape92" transform="translate(232.000000,105.000000)"><text xml:space="preserve" style="fill:#191919;font-family:微软雅黑;font-size:10.00pt;font-weight:bold"><tspan y="32.5" x="9.5">混样不做+HIC   的hifiasm组装</tspan></text></g><g id="shape93" transform="translate(150.000000,334.000000)"><text xml:space="preserve" style="fill:#191919;font-family:微软雅黑;font-size:10.00pt;font-weight:bold"><tspan y="16.5" x="4.5">二代做库评估QV有</tspan><tspan y="35.5" x="8.0">问题检查是否同一</tspan><tspan y="54.5" x="47.0">样本</tspan></text></g><g id="shape94" transform="translate(392.500000,334.000000)"><text xml:space="preserve" style="fill:#191919;font-family:微软雅黑;font-size:10.00pt;font-weight:bold"><tspan y="16.5" x="4.5">三代做库评估QV值</tspan><tspan y="35.5" x="8.0">过高，HIFI数据评</tspan><tspan y="54.5" x="8.0">估HIFI基因组不可</tspan></text></g><g id="shape95" transform="translate(40.000000,635.000000)"><path fill="#1a255e" stroke="#1a255e" d="M108.0,73.0L108.0,.0L.0,.0L.0,73.0L108.0,73.0z" fill-rule="nonzero" stroke-width="4"/><text xml:space="preserve" style="fill:#ffffff;font-family:微软雅黑;font-size:10.00pt"><tspan y="23.0" x="21.5">去冗余回捞</tspan><tspan y="42.0" x="5.0">BUSCO基因、端</tspan><tspan y="61.0" x="10.5">粒、rDNA序列</tspan></text></g><g id="shape96" transform="translate(94.000000,708.000000)"><path fill="none" stroke="#191919" d="M.0,.0L.0,44.0L142.0,44.0" stroke-width="4"/><path fill="#191919" stroke="#191919" stroke-linecap="round" d="M142.0,38.0L154.0,44.0L142.0,50.0L142.0,38.0" stroke-width="1"/></g><g id="shape97" transform="translate(84.000000,558.500000)"><text xml:space="preserve" style="fill:#191919;font-family:微软雅黑;font-size:10.00pt;font-weight:bold"><tspan y="23.0" x="22.0">purge dups</tspan></text></g><g id="shape98" transform="translate(94.000000,533.000000)"><path fill="none" stroke="#191919" d="M.0,.0L.0,90.0" stroke-width="4"/><path fill="#191919" stroke="#191919" stroke-linecap="round" d="M6.0,90.0L.0,102.0L-6.0,90.0L6.0,90.0" stroke-width="1"/></g><g id="shape99" transform="translate(520.000000,635.000000)"><path fill="#1a255e" stroke="#1a255e" d="M108.0,73.0L108.0,.0L.0,.0L.0,73.0L108.0,73.0z" fill-rule="nonzero" stroke-width="4"/><text xml:space="preserve" style="fill:#ffffff;font-family:微软雅黑;font-size:10.00pt"><tspan y="23.0" x="21.5">去冗余回捞</tspan><tspan y="42.0" x="5.0">BUSCO基因、端</tspan><tspan y="61.0" x="10.5">粒、rDNA序列</tspan></text></g><g id="shape100" transform="translate(574.000000,708.000000)"><path fill="none" stroke="#191919" d="M.0,.0L.0,44.0L-140.0,44.0" stroke-width="4"/><path fill="#191919" stroke="#191919" stroke-linecap="round" d="M-140.0,50.0L-152.0,44.0L-140.0,38.0L-140.0,50.0" stroke-width="1"/></g><g id="shape101" transform="translate(520.000000,460.000000)"><path fill="#1a255e" stroke="#1a255e" d="M108.0,73.0L108.0,.0L.0,.0L.0,73.0L108.0,73.0z" fill-rule="nonzero" stroke-width="4"/><text xml:space="preserve" style="fill:#ffffff;font-family:微软雅黑;font-size:10.00pt"><tspan y="32.5" x="5.5">尽量不去冗余/只</tspan><tspan y="51.5" x="5.0">去低深度和短ctg</tspan></text></g><g id="shape102" transform="translate(574.000000,533.000000)"><path fill="none" stroke="#191919" d="M.0,.0L.0,90.0" stroke-width="4"/><path fill="#191919" stroke="#191919" stroke-linecap="round" d="M6.0,90.0L.0,102.0L-6.0,90.0L6.0,90.0" stroke-width="1"/></g><g id="shape103" transform="translate(574.000000,394.000000)"><path fill="none" stroke="#191919" d="M.0,.0L.0,54.0" stroke-width="4"/><path fill="#191919" stroke="#191919" stroke-linecap="round" d="M6.0,54.0L.0,66.0L-6.0,54.0L6.0,54.0" stroke-width="1"/></g><g id="shape104" transform="translate(558.000000,558.500000)"><text xml:space="preserve" style="fill:#191919;font-family:微软雅黑;font-size:10.00pt;font-weight:bold"><tspan y="23.0" x="22.0">purge dups</tspan></text></g><g id="shape105" transform="translate(1652.000000,449.000000)"><path fill="#1a255e" stroke="#1a255e" d="M120.0,107.0L120.0,.0L.0,.0L.0,107.0L120.0,107.0z" fill-rule="nonzero" stroke-width="4"/><text xml:space="preserve" style="fill:#ffffff;font-family:微软雅黑;font-size:10.00pt"><tspan y="30.5" x="11.0">检测rDNA/Gap/</tspan><tspan y="49.5" x="7.0">TR富集区的位置，</tspan><tspan y="68.5" x="8.5">绘制genomeview</tspan><tspan y="87.5" x="40.5">预览图</tspan></text></g><g id="shape106" transform="translate(1652.000000,502.000000)"><path fill="none" stroke="#191919" d="M.0,.0L-11.0,.0" stroke-width="4"/><path fill="#191919" stroke="#191919" stroke-linecap="round" d="M-11.0,6.0L-23.0,.0L-11.0,-6.0L-11.0,6.0" stroke-width="1"/></g><g id="shape107" transform="translate(1652.000000,616.850000)"><path fill="#1a255e" stroke="#1a255e" d="M120.0,91.2L120.0,.0L.0,.0L.0,91.2L120.0,91.2z" fill-rule="nonzero" stroke-width="4"/><text xml:space="preserve" style="fill:#ffffff;font-family:微软雅黑;font-size:10.00pt"><tspan y="22.6" x="8.0">重复序列注释、基</tspan><tspan y="41.6" x="8.0">因结构注释、基因</tspan><tspan y="60.6" x="8.0">功能注释、非编码</tspan><tspan y="79.6" x="33.0">RNA注释</tspan></text></g><g id="shape108" transform="translate(1629.000000,663.150000)"><path fill="none" stroke="#191919" d="M.0,.0L11.0,.0" stroke-width="4"/><path fill="#191919" stroke="#191919" stroke-linecap="round" d="M11.0,-6.0L23.0,.0L11.0,6.0L11.0,-6.0" stroke-width="1"/></g><g id="shape109" transform="translate(1652.000000,733.400000)"><path fill="#1a255e" stroke="#1a255e" d="M120.0,34.6L120.0,.0L.0,.0L.0,34.6L120.0,34.6z" fill-rule="nonzero" stroke-width="4"/><text xml:space="preserve" style="fill:#ffffff;font-family:微软雅黑;font-size:10.00pt"><tspan y="22.8" x="27.5">着丝粒预测</tspan></text></g><g id="shape110" transform="translate(1712.000000,709.000000)"><path fill="none" stroke="#191919" d="M.0,.0L.0,12.0" stroke-width="4"/><path fill="#191919" stroke="#191919" stroke-linecap="round" d="M6.0,12.0L.0,24.0L-6.0,12.0L6.0,12.0" stroke-width="1"/></g><g id="shape111" transform="translate(1647.461538,693.000000)"><text xml:space="preserve" style="fill:#191919;font-family:微软雅黑;font-size:10.00pt;font-weight:bold"><tspan y="32.5" x="4.3">zgtools     centromere</tspan></text></g><g id="shape112" transform="translate(1652.000000,750.000000)"><path fill="none" stroke="#191919" d="M.0,.0L-85.0,.0" stroke-width="4"/><path fill="#191919" stroke="#191919" stroke-linecap="round" d="M-85.0,6.0L-97.0,.0L-85.0,-6.0L-85.0,6.0" stroke-width="1"/></g><g id="shape113" transform="translate(1103.451883,10.929412)"><text xml:space="preserve" style="fill:#191919;font-family:微软雅黑;font-size:10.00pt;font-weight:bold"><tspan y="58.5" x="49.4">zgtools流程：</tspan><tspan y="77.5" x="27.9">https://github.com/</tspan><tspan y="96.5" x="14.9">linyuiz/zgtools-pipeline</tspan></text></g><path fill="#002060" stroke="#002060" d="M.0,73.5C.0,58.9,11.2,46.3,27.1,41.0C27.6,29.3,39.6,20.0,54.4,20.0C58.0,20.0,61.5,20.6,64.7,21.6C73.5,8.7,90.7,.0,110.4,.0C139.2,.0,162.5,18.6,162.5,41.5C162.5,42.0,162.5,42.5,162.5,43.0C184.6,43.6,202.3,58.1,202.3,75.8C202.3,94.0,183.8,108.7,161.0,108.7C141.0,108.7,66.3,108.7,44.3,108.7C19.8,108.7,.0,93.0,.0,73.5zM50.8,102.8C70.3,102.8,136.1,102.8,153.8,102.8C173.9,102.8,193.8,92.1,193.8,76.1C193.8,60.4,180.5,49.0,155.2,48.0C155.2,47.5,155.2,47.1,155.2,46.7C155.1,23.5,135.5,6.6,110.1,6.6C92.7,6.6,75.3,15.7,69.3,28.8C66.5,27.9,59.8,26.2,56.6,26.2C43.6,26.2,33.8,34.0,35.1,45.6C20.6,49.0,8.3,60.7,8.3,73.5C8.3,90.7,29.3,102.8,50.8,102.8z" fill-rule="nonzero" id="shape114" transform="translate(1095.634589,17.252760)" stroke-width="1"/></g></svg>